{
    "asset": {
        "version": "2.0",
        "generator": "Open Asset Import Library (assimp v5.0.5eb040c7)"
    },
    "accessors": [
        {
            "bufferView": 0,
            "byteOffset": 0,
            "componentType": 5126,
            "count": 2141,
            "type": "VEC3",
            "max": [
                197.5416259765625,
                198.62957763671876,
                197.44102478027345
            ],
            "min": [
                -197.54156494140626,
                -198.62962341308595,
                -197.44093322753907
            ]
        },
        {
            "bufferView": 1,
            "byteOffset": 0,
            "componentType": 5126,
            "count": 2141,
            "type": "VEC3",
            "max": [
                0.9999291896820068,
                0.9999998807907105,
                1.0
            ],
            "min": [
                -0.9999291896820068,
                -0.9999998807907105,
                -1.0
            ]
        },
        {
            "bufferView": 2,
            "byteOffset": 0,
            "componentType": 5126,
            "count": 2141,
            "type": "VEC2",
            "max": [
                1.0,
                1.0
            ],
            "min": [
                0.0,
                0.0
            ]
        },
        {
            "bufferView": 3,
            "byteOffset": 0,
            "componentType": 5125,
            "count": 11904,
            "type": "SCALAR",
            "max": [
                2140
            ],
            "min": [
                0
            ]
        },
        {
            "bufferView": 4,
            "byteOffset": 0,
            "componentType": 5126,
            "count": 2141,
            "type": "VEC3",
            "max": [
                198.73446655273438,
                199.8289794921875,
                198.63323974609376
            ],
            "min": [
                -198.73440551757813,
                -199.82901000976563,
                -198.6331329345703
            ]
        },
        {
            "bufferView": 5,
            "byteOffset": 0,
            "componentType": 5126,
            "count": 2141,
            "type": "VEC3",
            "max": [
                0.9999291896820068,
                0.9999998807907105,
                1.0
            ],
            "min": [
                -0.9999291896820068,
                -0.9999998807907105,
                -1.0
            ]
        },
        {
            "bufferView": 6,
            "byteOffset": 0,
            "componentType": 5126,
            "count": 2141,
            "type": "VEC2",
            "max": [
                1.0,
                1.0
            ],
            "min": [
                0.0,
                0.0
            ]
        },
        {
            "bufferView": 7,
            "byteOffset": 0,
            "componentType": 5125,
            "count": 11904,
            "type": "SCALAR",
            "max": [
                2140
            ],
            "min": [
                0
            ]
        }
    ],
    "buffers": [
        {
            "byteLength": 232256,
            "uri": "result.bin"
        }
    ],
    "bufferViews": [
        {
            "buffer": 0,
            "byteOffset": 0,
            "byteLength": 25692,
            "target": 34962
        },
        {
            "buffer": 0,
            "byteOffset": 25692,
            "byteLength": 25692,
            "target": 34962
        },
        {
            "buffer": 0,
            "byteOffset": 51384,
            "byteLength": 17128,
            "target": 34962
        },
        {
            "buffer": 0,
            "byteOffset": 68512,
            "byteLength": 47616,
            "target": 34963
        },
        {
            "buffer": 0,
            "byteOffset": 116128,
            "byteLength": 25692,
            "target": 34962
        },
        {
            "buffer": 0,
            "byteOffset": 141820,
            "byteLength": 25692,
            "target": 34962
        },
        {
            "buffer": 0,
            "byteOffset": 167512,
            "byteLength": 17128,
            "target": 34962
        },
        {
            "buffer": 0,
            "byteOffset": 184640,
            "byteLength": 47616,
            "target": 34963
        }
    ],
    "materials": [
        {
            "name": "DefaultMaterial",
            "pbrMetallicRoughness": {
                "baseColorFactor": [
                    0.6000000238418579,
                    0.6000000238418579,
                    0.6000000238418579,
                    1.0
                ],
                "metallicFactor": 0.0
            }
        },
        {
            "name": "earth",
            "pbrMetallicRoughness": {
                "baseColorFactor": [
                    0.6000000238418579,
                    0.6000000238418579,
                    0.6000000238418579,
                    1.0
                ],
                "metallicFactor": 0.0
            }
        },
        {
            "name": "clouds",
            "pbrMetallicRoughness": {
                "baseColorFactor": [
                    0.6000000238418579,
                    0.6000000238418579,
                    0.6000000238418579,
                    1.0
                ],
                "metallicFactor": 0.0
            }
        }
    ],
    "meshes": [
        {
            "name": "Earth_Sphere",
            "primitives": [
                {
                    "mode": 4,
                    "material": 1,
                    "indices": 3,
                    "attributes": {
                        "POSITION": 0,
                        "NORMAL": 1,
                        "TEXCOORD_0": 2
                    }
                }
            ]
        },
        {
            "name": "Clouds_Sphere.002",
            "primitives": [
                {
                    "mode": 4,
                    "material": 2,
                    "indices": 7,
                    "attributes": {
                        "POSITION": 4,
                        "NORMAL": 5,
                        "TEXCOORD_0": 6
                    }
                }
            ]
        }
    ],
    "nodes": [
        {
            "name": "input.obj",
            "children": [
                1,
                2
            ]
        },
        {
            "name": "Earth_Sphere",
            "mesh": 0
        },
        {
            "name": "Clouds_Sphere.002",
            "mesh": 1
        }
    ],
    "scenes": [
        {
            "nodes": [
                0
            ]
        }
    ],
    "scene": 0
}